ModelForces
version=1
nRows=4
nColumns=157
inDegrees=no

This file contains the forces exerted on a model during a simulation.

A force is a generalized force, meaning that it can be either a force (N) or a torque (Nm).

Units are S.I. units (second, meters, Newtons, ...)
Angles are in degrees.

endheader
time	glut_med1_r	glut_med2_r	glut_med3_r	glut_min1_r	glut_min2_r	glut_min3_r	semimem_r	semiten_r	bifemlh_r	bifemsh_r	sar_r	add_long_r	add_brev_r	add_mag1_r	add_mag2_r	add_mag3_r	tfl_r	pect_r	grac_r	glut_max1_r	glut_max2_r	glut_max3_r	iliacus_r	psoas_r	quad_fem_r	gem_r	peri_r	rect_fem_r	vas_med_r	vas_int_r	vas_lat_r	med_gas_r	lat_gas_r	soleus_r	tib_post_r	flex_dig_r	flex_hal_r	tib_ant_r	per_brev_r	per_long_r	per_tert_r	ext_dig_r	ext_hal_r	glut_med1_l	glut_med2_l	glut_med3_l	glut_min1_l	glut_min2_l	glut_min3_l	semimem_l	semiten_l	bifemlh_l	bifemsh_l	sar_l	add_long_l	add_brev_l	add_mag1_l	add_mag2_l	add_mag3_l	tfl_l	pect_l	grac_l	glut_max1_l	glut_max2_l	glut_max3_l	iliacus_l	psoas_l	quad_fem_l	gem_l	peri_l	rect_fem_l	vas_med_l	vas_int_l	vas_lat_l	med_gas_l	lat_gas_l	soleus_l	tib_post_l	flex_dig_l	flex_hal_l	tib_ant_l	per_brev_l	per_long_l	per_tert_l	ext_dig_l	ext_hal_l	ercspn_r	ercspn_l	intobl_r	intobl_l	extobl_r	extobl_l	femur_lat_meniscii_r.femur_lat_r.force.X	femur_lat_meniscii_r.femur_lat_r.force.Y	femur_lat_meniscii_r.femur_lat_r.force.Z	femur_lat_meniscii_r.femur_lat_r.torque.X	femur_lat_meniscii_r.femur_lat_r.torque.Y	femur_lat_meniscii_r.femur_lat_r.torque.Z	femur_lat_meniscii_r.meniscus_lat_r.force.X	femur_lat_meniscii_r.meniscus_lat_r.force.Y	femur_lat_meniscii_r.meniscus_lat_r.force.Z	femur_lat_meniscii_r.meniscus_lat_r.torque.X	femur_lat_meniscii_r.meniscus_lat_r.torque.Y	femur_lat_meniscii_r.meniscus_lat_r.torque.Z	femur_med_meniscii_r.femur_med_r.force.X	femur_med_meniscii_r.femur_med_r.force.Y	femur_med_meniscii_r.femur_med_r.force.Z	femur_med_meniscii_r.femur_med_r.torque.X	femur_med_meniscii_r.femur_med_r.torque.Y	femur_med_meniscii_r.femur_med_r.torque.Z	femur_med_meniscii_r.meniscus_med_r.force.X	femur_med_meniscii_r.meniscus_med_r.force.Y	femur_med_meniscii_r.meniscus_med_r.force.Z	femur_med_meniscii_r.meniscus_med_r.torque.X	femur_med_meniscii_r.meniscus_med_r.torque.Y	femur_med_meniscii_r.meniscus_med_r.torque.Z	femur_med_tibia_r.tibia_upper_r.force.X	femur_med_tibia_r.tibia_upper_r.force.Y	femur_med_tibia_r.tibia_upper_r.force.Z	femur_med_tibia_r.tibia_upper_r.torque.X	femur_med_tibia_r.tibia_upper_r.torque.Y	femur_med_tibia_r.tibia_upper_r.torque.Z	femur_med_tibia_r.femur_med_r.force.X	femur_med_tibia_r.femur_med_r.force.Y	femur_med_tibia_r.femur_med_r.force.Z	femur_med_tibia_r.femur_med_r.torque.X	femur_med_tibia_r.femur_med_r.torque.Y	femur_med_tibia_r.femur_med_r.torque.Z	femur_lat_tibia_r.tibia_upper_r.force.X	femur_lat_tibia_r.tibia_upper_r.force.Y	femur_lat_tibia_r.tibia_upper_r.force.Z	femur_lat_tibia_r.tibia_upper_r.torque.X	femur_lat_tibia_r.tibia_upper_r.torque.Y	femur_lat_tibia_r.tibia_upper_r.torque.Z	femur_lat_tibia_r.femur_lat_r.force.X	femur_lat_tibia_r.femur_lat_r.force.Y	femur_lat_tibia_r.femur_lat_r.force.Z	femur_lat_tibia_r.femur_lat_r.torque.X	femur_lat_tibia_r.femur_lat_r.torque.Y	femur_lat_tibia_r.femur_lat_r.torque.Z	aACL_R	pACL_R	aPCL_R	pPCL_R	aMCL_R	mMCL_R	pMCL_R	aLCL_R	mLCL_R	pLCL_R	ground_prescribedForce_fx	ground_prescribedForce_fy	ground_prescribedForce_fz	ground_prescribedForce_px	ground_prescribedForce_py	ground_prescribedForce_pz
      0.12144079	     14.46580320	     27.42236930	    142.83011742	      4.61230918	      5.17554837	     10.92457728	    134.07437671	    145.49058483	    247.77278514	    229.77316987	     90.97292077	      8.61048225	      7.62059721	     19.81685912	     16.19748933	     83.96688348	      0.00000000	      2.94457445	     90.43659345	     10.15719397	     15.25835214	     59.63572907	      9.44318554	      9.01007927	    190.34920573	     37.10499038	     74.29481842	     21.51308925	     39.83625059	     42.88972327	     57.75247575	      0.00000000	      0.00000000	      0.00000000	      0.00000000	      0.00000000	      0.00000000	     36.38349963	      0.54994369	      0.08127302	     23.32696598	     37.36391583	      9.85169531	     14.52174324	     10.41438413	     11.22980621	      4.76639011	      5.48110438	      6.13393764	     18.34115371	      7.81665767	     15.84478899	     13.10847648	      2.71691538	     10.39043722	      7.38331028	      5.34900225	      4.56030950	      7.80092332	      6.46268877	      4.02943312	      2.81503214	      6.73220418	     10.24579462	      7.72392042	     31.38020885	     22.90005491	      6.58410257	      4.29012468	      8.91322359	     21.85043587	     12.32747307	     14.28901408	     15.34936057	     31.78372020	     14.78019334	     67.86300979	     58.03566565	      7.24811481	      7.11207193	     16.99612385	      9.17875694	     22.89122315	      3.53791068	     11.20712249	      3.49747627	     44.88550352	     44.88550352	     16.95038374	     16.95038374	     34.00742207	     34.00742207	    -72.24575722	     97.33696742	     20.61273982	     -2.50909866	    -10.05623090	     38.93411997	     72.24575722	    -97.33696742	    -20.61273982	      3.14305753	      2.23752347	      0.20915335	     -9.36333336	      8.74435450	      7.98201991	      0.21985308	     -3.03416377	      3.58414950	      9.36333336	     -8.74435450	     -7.98201991	     -0.02670432	     -0.02718636	     -0.00384686	    659.59893367	  -1081.03584812	    345.54072233	    -24.19438129	    -17.77512001	     -9.44727131	   -659.59893367	   1081.03584812	   -345.54072233	     18.47218661	    152.22622102	    441.00512799	    105.02306825	   -161.53097240	    -59.44375625	      5.53062480	      4.02053822	     -1.15019152	   -105.02306825	    161.53097240	     59.44375625	     -3.91787856	    -26.75523169	     65.77821882	      0.00000000	      0.00000000	    911.74201088	    592.55637846	     52.78188792	      0.00000000	      0.00000000	      0.00000000	      0.00000000	      0.00000000	      0.00000000	      0.00000000	      0.00000000	      0.00000000	      0.00000000	      0.00000000
      0.12185781	     14.42704954	     27.39834476	    142.81038434	      4.60107582	      5.16262769	     10.90951120	    134.36475634	    145.58914291	    248.80719697	    229.91168059	     90.87374598	      8.58855717	      7.60218576	     19.80106935	     16.18275342	     83.95093905	      0.00000000	      2.93737794	     90.41138488	     10.13094702	     15.21886085	     59.61551492	      9.41919110	      8.98658148	    190.33963747	     37.09997583	     74.28070573	     21.54361795	     39.78991332	     42.84774684	     57.69294547	      0.00000000	      0.00000000	      0.00000000	      0.00000000	      0.00000000	      0.00000000	     36.48194382	      0.54970392	      0.08566360	     25.91264054	     37.68165446	      9.93556659	     14.48283267	     10.38799274	     11.20103552	      4.75477279	      5.46832032	      6.11753095	     18.28951090	      7.79581966	     15.80031184	     13.07581680	      2.71032355	     10.36382767	      7.36547851	      5.33548186	      4.54853878	      7.77967634	      6.44947943	      4.01954024	      2.80808636	      6.71503606	     10.21962441	      7.70393992	     31.33106855	     22.84406244	      6.56772150	      4.28197983	      8.88788181	     21.78925638	     12.29525903	     14.25120760	     15.30866573	     31.69370923	     14.73820320	     67.66945568	     57.94919980	      7.22739864	      7.09166388	     16.94898330	      9.15262044	     22.83532778	      3.52929108	     11.17501317	      3.48748274	     44.77586860	     44.77586860	     16.90602419	     16.90602419	     33.96675536	     33.96675536	    -74.50887658	     97.68264709	     21.17208723	     -2.53151158	    -10.33168706	     39.04130737	     74.50887658	    -97.68264709	    -21.17208723	      3.18125585	      2.29982637	      0.30224524	     -8.86823185	      8.25643564	      7.70197305	      0.20635631	     -2.93122091	      3.38171451	      8.86823185	     -8.25643564	     -7.70197305	     -0.01943144	     -0.02365748	      0.00111431	    654.29982722	  -1083.39522306	    348.95862630	    -24.33164890	    -17.70809387	     -9.37557325	   -654.29982722	   1083.39522306	   -348.95862630	     18.50400211	    153.50085964	    441.89178197	    108.19662527	   -169.60067465	    -61.65981216	      5.79657001	      4.14534841	     -1.22436181	   -108.19662527	    169.60067465	     61.65981216	     -4.11251837	    -27.73384648	     69.06164099	      0.00000000	      0.00000000	    917.59384847	    596.52423397	     52.81551443	      0.00000000	      0.00000000	      0.00000000	      0.00000000	      0.00000000	      0.00000000	      0.00000000	      0.00000000	      0.00000000	      0.00000000	      0.00000000
      0.12209836	     14.40479559	     27.38454933	    142.79905231	      4.59462485	      5.15520799	     10.90086083	    134.53158337	    145.64171462	    249.40498739	    229.99779511	     90.81640338	      8.57596712	      7.59161250	     19.79200257	     16.17429226	     83.94178361	      0.00000000	      2.93324528	     90.39492171	     10.11587511	     15.19618357	     59.60390747	      9.40541311	      8.97308911	    190.33414257	     37.09709628	     74.27260346	     21.56210837	     39.76853073	     42.82768246	     57.66352842	      0.00000000	      0.00000000	      0.00000000	      0.00000000	      0.00000000	      0.00000000	     36.53926719	      0.54864870	      0.08742497	     24.59220814	     37.86719559	      9.98485959	     14.46048862	     10.37283771	     11.18451439	      4.74810134	      5.46097920	      6.10810956	     18.25984853	      7.78385371	     15.77476734	     13.05706202	      2.70653806	     10.34854753	      7.35523815	      5.32771797	      4.54177975	      7.76747518	      6.44189398	      4.01385917	      2.80409769	      6.70517771	     10.20459680	      7.69246660	     31.30285278	     22.81191140	      6.55831465	      4.27730326	      8.87332524	     21.75412011	     12.27676160	     14.22949880	     15.28529898	     31.64199957	     14.71408102	     67.55827688	     57.89954633	      7.21549371	      7.07993721	     16.92191109	      9.13760911	     22.80322792	      3.52434168	     11.15657559	      3.48174512	     44.71290898	     44.71290898	     16.88055145	     16.88055145	     33.94340577	     33.94340577	    -75.00149878	     95.45265233	     21.37466026	     -2.48173283	    -10.42439042	     38.12020826	     75.00149878	    -95.45265233	    -21.37466026	      3.13354692	      2.31439200	      0.38369695	     -8.75785262	      8.15939350	      7.66842079	      0.20368442	     -2.92040270	      3.34067478	      8.75785262	     -8.15939350	     -7.66842079	     -0.01718029	     -0.02209840	      0.00322101	    649.37494846	  -1083.62173533	    349.33361290	    -24.34822079	    -17.60562815	     -9.36313258	   -649.37494846	   1083.62173533	   -349.33361290	     18.49330415	    153.55338479	    441.95242423	    111.14266816	   -175.20357051	    -63.42646730	      5.98888102	      4.25600902	     -1.25449129	   -111.14266816	    175.20357051	     63.42646730	     -4.25078900	    -28.52355758	     71.33465702	      0.00000000	      0.00000000	    920.92781239	    598.69750221	     52.84406474	      0.00000000	      0.00000000	      0.00000000	      0.00000000	      0.00000000	      0.00000000	      0.00000000	      0.00000000	      0.00000000	      0.00000000	      0.00000000
      0.12241743	     14.37539158	     27.36632200	    142.78407881	      4.58610089	      5.14540426	     10.88943251	    134.75678724	    145.71265151	    250.21328078	    230.15366629	     90.74392164	      8.55933221	      7.57764139	     19.78002308	     16.16311348	     83.92968712	      0.00000000	      2.92778467	     90.37475820	     10.09596087	     15.16622051	     59.58857098	      9.38720903	      8.95526286	    190.32688172	     37.09329156	     74.26190003	     21.58782427	     39.73784830	     42.80185746	     57.62875221	      0.00000000	      0.00000000	      0.00000000	      0.00000000	      0.00000000	      0.00000000	     36.61507874	      0.54629116	      0.08893313	     25.39001003	     38.11322741	     10.05007013	     14.43096554	     10.35281345	     11.16268531	      4.73928604	      5.45127943	      6.09566114	     18.22064803	      7.76804327	     15.74101115	     13.03228117	      2.70153607	     10.32835816	      7.34170691	      5.31745967	      4.53284930	      7.75135357	      6.43187127	      4.00635259	      2.79882735	      6.69215226	     10.18474137	      7.67730732	     31.26557437	     22.76943280	      6.54588525	      4.27112475	      8.85408693	     21.70768973	     12.25232239	     14.20081648	     15.25442676	     31.57365160	     14.68219762	     67.41134102	     57.83393814	      7.19975381	      7.06443432	     16.88613831	      9.11777172	     22.76081180	      3.51780242	     11.13221513	      3.47416524	     44.62971772	     44.62971772	     16.84689484	     16.84689484	     33.91255735	     33.91255735	    -70.91873336	     95.77396112	     17.84839744	     -2.46326659	     -8.86686997	     38.30041964	     70.91873336	    -95.77396112	    -17.84839744	      3.03853902	      2.10890576	      0.24839660	     -8.27030006	      7.62995952	      7.49831435	      0.18859878	     -2.86320361	      3.12096498	      8.27030006	     -7.62995952	     -7.49831435	     -0.00621162	     -0.01503278	      0.00896830	    641.72023933	  -1082.53142577	    349.78737384	    -24.34798679	    -17.44903453	     -9.34675703	   -641.72023933	   1082.53142577	   -349.78737384	     18.45558316	    153.58378394	    441.47047089	    113.48442233	   -181.23174114	    -64.98231441	      6.18899933	      4.34611380	     -1.30224948	   -113.48442233	    181.23174114	     64.98231441	     -4.39906855	    -29.21361619	     73.78212436	      0.00000000	      0.00000000	    925.29957801	    601.46078180	     52.88063198	      0.00000000	      0.00000000	      0.00000000	      0.00000000	      0.00000000	      0.00000000	      0.00000000	      0.00000000	      0.00000000	      0.00000000	      0.00000000
